<svg width="30" height="30" viewBox="0 0 30 30" fill="none" xmlns="http://www.w3.org/2000/svg">
<path d="M15 2.8125C8.28 2.8125 2.8125 8.28 2.8125 15C2.8125 21.72 8.28 27.1875 15 27.1875C21.72 27.1875 27.1875 21.72 27.1875 15C27.1875 8.28 21.72 2.8125 15 2.8125ZM13.9453 4.74656C13.9828 4.74188 14.0241 4.74938 14.0625 4.74656V5.625H15.9375V4.74562C18.3363 4.96022 20.5834 6.01074 22.2863 7.71369C23.9893 9.41664 25.0398 11.6637 25.2544 14.0625H24.375V15.9375H25.2544C25.0398 18.3363 23.9893 20.5834 22.2863 22.2863C20.5834 23.9893 18.3363 25.0398 15.9375 25.2544V24.375H14.0625V25.2544C11.6637 25.0398 9.41664 23.9893 7.71369 22.2863C6.01074 20.5834 4.96022 18.3363 4.74562 15.9375H5.625V14.0625H4.74562C5.18812 9.14719 9.04594 5.24062 13.9453 4.74562V4.74656ZM20.7141 9.28688L12.7453 12.7444L9.28594 20.7131L17.2547 17.2556L20.7141 9.28688V9.28688ZM15 13.5938C15.75 13.5938 16.4062 14.25 16.4062 15C16.4062 15.75 15.75 16.4062 15 16.4062C14.25 16.4062 13.5938 15.75 13.5938 15C13.5938 14.25 14.25 13.5938 15 13.5938Z" fill="#FEFEFE"/>
</svg>
