<svg width="30" height="30" viewBox="0 0 30 30" fill="none" xmlns="http://www.w3.org/2000/svg">
<path d="M19.0908 16.3636H10.909V13.6364H19.0908V16.3636ZM5.45443 8.18182V10.9091H2.72716V13.6364C2.3655 13.6364 2.01866 13.78 1.76293 14.0358C1.50719 14.2915 1.36353 14.6383 1.36353 15C1.36353 15.3617 1.50719 15.7085 1.76293 15.9642C2.01866 16.22 2.3655 16.3636 2.72716 16.3636V19.0909H5.45443V21.8182H9.54534V8.18182H5.45443ZM27.2726 13.6364V10.9091H24.5453V8.18182H20.4544V21.8182H24.5453V19.0909H27.2726V16.3636C27.6343 16.3636 27.9811 16.22 28.2369 15.9642C28.4926 15.7085 28.6363 15.3617 28.6363 15C28.6363 14.6383 28.4926 14.2915 28.2369 14.0358C27.9811 13.78 27.6343 13.6364 27.2726 13.6364Z" fill="#FEFEFE"/>
</svg>
