<svg width="30" height="30" viewBox="0 0 30 30" fill="none" xmlns="http://www.w3.org/2000/svg">
<path d="M12.7267 3.60001C5.1475 3.60001 0.600098 9.67981 0.600098 12.72C0.600098 15.7602 2.1157 18.0402 5.1475 18.0402C8.1793 18.0402 9.6955 18.7998 9.6955 21.0798C9.6955 24.1194 11.9689 26.3994 15.0007 26.3994C24.8539 26.3994 29.4007 21.0798 29.4007 15.7602C29.4001 6.64021 21.8197 3.60001 12.7267 3.60001ZM10.8319 6.64021C11.081 6.64052 11.3277 6.68991 11.5577 6.78554C11.7878 6.88117 11.9968 7.02119 12.1727 7.19758C12.3487 7.37397 12.4881 7.5833 12.5832 7.8136C12.6783 8.0439 12.727 8.29066 12.7267 8.53981C12.7267 9.58981 11.8783 10.44 10.8319 10.44C9.7855 10.44 8.9371 9.58921 8.9371 8.53981C8.93678 8.29066 8.98554 8.0439 9.0806 7.8136C9.17565 7.5833 9.31513 7.37397 9.49108 7.19758C9.66703 7.02119 9.876 6.88117 10.1061 6.78554C10.3361 6.68991 10.5828 6.64052 10.8319 6.64021V6.64021ZM16.8943 6.64021C17.1434 6.64052 17.3901 6.68991 17.6201 6.78554C17.8502 6.88117 18.0592 7.02119 18.2351 7.19758C18.4111 7.37397 18.5505 7.5833 18.6456 7.8136C18.7407 8.0439 18.7894 8.29066 18.7891 8.53981C18.7895 8.789 18.7408 9.03583 18.6458 9.2662C18.5508 9.49657 18.4113 9.70596 18.2353 9.88242C18.0594 10.0589 17.8504 10.1989 17.6203 10.2946C17.3902 10.3903 17.1435 10.4397 16.8943 10.44C16.6452 10.4396 16.3985 10.3902 16.1685 10.2944C15.9385 10.1987 15.7295 10.0587 15.5537 9.88221C15.3778 9.70576 15.2383 9.49639 15.1434 9.26606C15.0484 9.03573 14.9997 8.78895 15.0001 8.53981C14.9995 8.03674 15.1987 7.55402 15.5539 7.19779C15.9091 6.84156 16.3912 6.641 16.8943 6.64021V6.64021ZM22.9579 9.67981C23.2071 9.68004 23.4539 9.72939 23.6841 9.82503C23.9142 9.92066 24.1233 10.0607 24.2993 10.2372C24.4753 10.4136 24.6149 10.6231 24.7099 10.8535C24.805 11.0839 24.8537 11.3308 24.8533 11.58C24.8537 11.8292 24.805 12.0761 24.7099 12.3064C24.6148 12.5368 24.4753 12.7462 24.2993 12.9226C24.1233 13.099 23.9142 13.239 23.684 13.3346C23.4539 13.4302 23.2071 13.4794 22.9579 13.4796C22.7088 13.4794 22.4621 13.43 22.2321 13.3344C22.002 13.2388 21.793 13.0988 21.6171 12.9224C21.4412 12.746 21.3018 12.5366 21.2068 12.3063C21.1119 12.0759 21.0632 11.8291 21.0637 11.58C21.0632 11.3308 21.1119 11.084 21.2068 10.8537C21.3018 10.6233 21.4412 10.4139 21.6171 10.2374C21.793 10.061 22.0019 9.92089 22.232 9.82521C22.4621 9.72953 22.7087 9.68012 22.9579 9.67981V9.67981ZM5.5267 11.2002C5.77579 11.2004 6.02239 11.2498 6.25241 11.3453C6.48243 11.4409 6.69136 11.5809 6.86727 11.7572C7.04318 11.9336 7.18261 12.1429 7.27761 12.3731C7.3726 12.6034 7.42129 12.8501 7.4209 13.0992C7.4209 14.1492 6.5725 14.9994 5.5267 14.9994C4.4809 14.9994 3.6319 14.1486 3.6319 13.0992C3.63142 12.5961 3.83076 12.1135 4.18609 11.7574C4.54142 11.4013 5.02363 11.2008 5.5267 11.2002V11.2002ZM15.0001 18.7998C16.2559 18.7998 17.2735 19.8198 17.2735 21.0804C17.2735 22.3392 16.2559 23.3598 15.0001 23.3598C13.7443 23.3598 12.7267 22.3392 12.7267 21.0804C12.7261 20.7814 12.7845 20.4851 12.8985 20.2087C13.0125 19.9322 13.1798 19.6809 13.3909 19.4691C13.602 19.2573 13.8528 19.0892 14.1289 18.9743C14.405 18.8595 14.7011 18.8002 15.0001 18.7998V18.7998Z" fill="#FEFEFE"/>
</svg>
