<svg width="20" height="12" viewBox="0 0 20 12" fill="none" xmlns="http://www.w3.org/2000/svg">
<path d="M19.9999 1.99108C20.0006 2.24723 19.9535 2.50032 19.8621 2.73175C19.7706 2.96319 19.6371 3.16708 19.4714 3.32846L10.9008 11.61C10.6452 11.8621 10.3246 12 9.9937 12C9.66284 12 9.34224 11.8621 9.08665 11.61L0.516026 3.03698C0.224316 2.74595 0.0408693 2.32774 0.00604443 1.87435C-0.0287805 1.42097 0.0878684 0.969549 0.330329 0.619401C0.57279 0.269252 0.921202 0.049057 1.29892 0.00725555C1.67663 -0.0345459 2.05271 0.105471 2.34442 0.396503L10.0008 8.06074L17.6573 0.653693C17.8669 0.444027 18.1223 0.310843 18.393 0.269899C18.6638 0.228955 18.9386 0.281965 19.1851 0.422658C19.4315 0.56335 19.6392 0.785836 19.7836 1.06379C19.928 1.34174 20.0031 1.66353 19.9999 1.99108Z" fill="#FEFEFE"/>
</svg>
