<svg width="24" height="12" viewBox="0 0 24 12" fill="none" xmlns="http://www.w3.org/2000/svg">
<path d="M23.9999 1.99108C24.0008 2.24723 23.9442 2.50032 23.8345 2.73175C23.7247 2.96319 23.5645 3.16708 23.3657 3.32846L13.0809 11.61C12.7742 11.8621 12.3895 12 11.9924 12C11.5954 12 11.2107 11.8621 10.904 11.61L0.619231 3.03698C0.269179 2.74595 0.0490432 2.32774 0.00725332 1.87435C-0.0345366 1.42097 0.105442 0.969549 0.396395 0.619401C0.687348 0.269252 1.10544 0.0490569 1.5587 0.00725555C2.01196 -0.0345458 2.46326 0.10547 2.81331 0.396503L12.001 8.06074L21.1887 0.653693C21.4403 0.444027 21.7467 0.310843 22.0716 0.269899C22.3965 0.228955 22.7264 0.281965 23.0221 0.422658C23.3178 0.56335 23.5671 0.785836 23.7404 1.06379C23.9137 1.34174 24.0037 1.66353 23.9999 1.99108Z" fill="#FEFEFE"/>
</svg>
