<svg width="30" height="30" viewBox="0 0 30 30" fill="none" xmlns="http://www.w3.org/2000/svg">
<path d="M18.1625 1.8125L16.8125 3.1625L18.8125 5.1625C19.0875 5.475 19.225 5.8375 19.225 6.25C19.225 6.6625 19.0875 7.05 18.8125 7.325L14.375 11.8375L15.625 13.1875L20.1625 8.675C20.825 7.9375 21.15 7.125 21.15 6.25C21.15 5.375 20.825 4.55 20.1625 3.8125L18.1625 1.8125V1.8125ZM13.1875 4.3375L11.8375 5.6875L12.6 6.3875C12.875 6.6625 13.0125 7.0375 13.0125 7.5C13.0125 7.9625 12.875 8.3375 12.6 8.6125L11.8375 9.3125L13.1875 10.6625L13.8875 9.9C14.55 9.1625 14.8875 8.3625 14.8875 7.5C14.8875 6.6 14.55 5.7875 13.8875 5.0375L13.1875 4.3375V4.3375ZM26.25 6.325C25.3875 6.325 24.5875 6.6625 23.85 7.325L16.8125 14.375L18.1625 15.625L25.1375 8.675C25.45 8.3625 25.825 8.2 26.25 8.2C26.675 8.2 27.05 8.3625 27.3625 8.675L28.125 9.4375L29.4125 8.0875L28.7125 7.325C27.975 6.6625 27.15 6.325 26.25 6.325V6.325ZM8.75 10L2.5 27.5L20 21.25L8.75 10ZM23.75 13.825C22.875 13.825 22.075 14.1625 21.325 14.825L19.3375 16.8125L20.6875 18.1625L22.675 16.175C22.9875 15.8625 23.3375 15.7 23.75 15.7C24.1625 15.7 24.5375 15.8625 24.85 16.175L26.875 18.1625L28.1875 16.875L26.1875 14.825C25.45 14.1625 24.625 13.825 23.75 13.825V13.825Z" fill="#FEFEFE"/>
</svg>
