<svg width="30" height="30" viewBox="0 0 30 30" fill="none" xmlns="http://www.w3.org/2000/svg">
<path d="M24.83 10.5813C25.0059 9.96395 25.044 9.31554 24.9417 8.68188C24.8394 8.04822 24.599 7.44479 24.2377 6.91427C23.8764 6.38374 23.4029 5.93909 22.8508 5.61176C22.2986 5.28443 21.6813 5.08241 21.0425 5.02C20.7862 4.28452 20.3075 3.64691 19.6729 3.19543C19.0382 2.74395 18.2789 2.50093 17.5 2.5C16.5745 2.50313 15.6833 2.85071 15 3.475C14.3167 2.85071 13.4255 2.50313 12.5 2.5C10.8738 2.5 9.4875 3.53875 8.96875 5.01875C8.32879 5.0796 7.71006 5.28053 7.15646 5.60728C6.60285 5.93404 6.12794 6.37862 5.7654 6.90949C5.40286 7.44035 5.16158 8.04449 5.05869 8.67904C4.95579 9.3136 4.99379 9.96303 5.17 10.5813C4.36754 11.0082 3.69563 11.6444 3.22554 12.4224C2.75546 13.2003 2.50474 14.091 2.5 15C2.5 16.3438 3.035 17.6075 3.965 18.54C3.8227 19.0136 3.75027 19.5055 3.75 20C3.75 22.4463 5.515 24.4875 7.8825 24.9175C8.23006 25.6856 8.79129 26.3376 9.49922 26.7955C10.2072 27.2534 11.0319 27.498 11.875 27.5C13.0987 27.5 14.205 26.9912 15 26.1762C15.4058 26.5948 15.8915 26.9277 16.4282 27.1551C16.965 27.3824 17.542 27.4997 18.125 27.5C18.9666 27.4984 19.79 27.2549 20.497 26.7983C21.204 26.3417 21.7648 25.6914 22.1125 24.925C22.8099 24.802 23.4734 24.5325 24.059 24.1343C24.6446 23.7361 25.1391 23.2181 25.5098 22.6147C25.8805 22.0113 26.119 21.3361 26.2095 20.6337C26.3001 19.9313 26.2406 19.2177 26.035 18.54C26.4998 18.0751 26.8683 17.5232 27.1197 16.9158C27.3711 16.3084 27.5003 15.6574 27.5 15C27.4953 14.091 27.2445 13.2003 26.7745 12.4224C26.3044 11.6444 25.6325 11.0082 24.83 10.5813ZM11.875 25C10.9862 25 10.2125 24.37 10.0375 23.5025L9.7725 22.5H8.75C7.37125 22.5 6.25 21.3788 6.25 20C6.25 19.56 6.35625 19.1475 6.56625 18.7738L7.13625 17.7538L6.15625 17.1162C5.80223 16.888 5.51097 16.5748 5.30901 16.2052C5.10705 15.8355 5.00082 15.4212 5 15C5 13.7788 5.90375 12.72 7.1025 12.535L9.21875 12.21L7.895 10.5275C7.65926 10.2236 7.52255 9.85461 7.50335 9.47047C7.48416 9.08632 7.5834 8.70555 7.78767 8.37966C7.99193 8.05376 8.29136 7.79846 8.64546 7.64828C8.99955 7.49811 9.39122 7.46031 9.7675 7.54L11.25 7.75875V6.25C11.25 5.91848 11.3817 5.60054 11.6161 5.36612C11.8505 5.1317 12.1685 5 12.5 5C12.8315 5 13.1495 5.1317 13.3839 5.36612C13.6183 5.60054 13.75 5.91848 13.75 6.25V23.125C13.75 24.1588 12.9088 25 11.875 25ZM23.8438 17.115L22.8638 17.7525L23.4337 18.7725C23.6437 19.1475 23.75 19.56 23.75 20C23.75 21.3788 22.6288 22.5 21.1875 22.5H20.165L19.9625 23.5025C19.8751 23.9253 19.6447 24.3051 19.31 24.5779C18.9753 24.8507 18.5568 24.9997 18.125 25C17.0912 25 16.25 24.1588 16.25 23.125V6.25C16.25 5.56 16.81 5 17.5 5C18.19 5 18.75 5.56 18.75 6.3125V7.82125L20.2325 7.54C20.6088 7.46031 21.0005 7.49811 21.3545 7.64828C21.7086 7.79846 22.0081 8.05376 22.2123 8.37966C22.4166 8.70555 22.5158 9.08632 22.4966 9.47047C22.4775 9.85461 22.3407 10.2236 22.105 10.5275L20.7812 12.2113L22.8975 12.5363C23.4831 12.6311 24.016 12.9309 24.4011 13.3821C24.7862 13.8334 24.9984 14.4068 25 15C25 15.8538 24.5675 16.6438 23.8438 17.115Z" fill="#FEFEFE"/>
</svg>
