<svg width="20" height="20" viewBox="0 0 20 20" fill="none" xmlns="http://www.w3.org/2000/svg">
<path d="M8.49997 3C9.52387 2.99994 10.5274 3.28568 11.3977 3.82507C12.268 4.36447 12.9705 5.13608 13.426 6.05306C13.8815 6.97004 14.0721 7.99597 13.9761 9.01536C13.8802 10.0347 13.5016 11.0071 12.883 11.823L17.03 15.97C17.1629 16.104 17.2405 16.2832 17.2471 16.4719C17.2538 16.6605 17.189 16.8447 17.0658 16.9878C16.9426 17.1308 16.77 17.2221 16.5825 17.2434C16.3949 17.2648 16.2062 17.2147 16.054 17.103L15.97 17.03L11.823 12.883C11.1275 13.4102 10.3167 13.7643 9.4573 13.9161C8.59795 14.0679 7.71481 14.0131 6.88084 13.7561C6.04688 13.4992 5.28603 13.0474 4.66116 12.4383C4.03629 11.8291 3.56534 11.08 3.28722 10.2529C3.00911 9.4257 2.9318 8.54424 3.0617 7.6813C3.1916 6.81837 3.52497 5.99872 4.03427 5.2901C4.54357 4.58148 5.21418 4.00421 5.99069 3.606C6.7672 3.20779 7.62731 3.00007 8.49997 3V3ZM8.49997 4.5C7.43911 4.5 6.42169 4.92143 5.67155 5.67157C4.9214 6.42172 4.49997 7.43913 4.49997 8.5C4.49997 9.56087 4.9214 10.5783 5.67155 11.3284C6.42169 12.0786 7.43911 12.5 8.49997 12.5C9.56084 12.5 10.5783 12.0786 11.3284 11.3284C12.0785 10.5783 12.5 9.56087 12.5 8.5C12.5 7.43913 12.0785 6.42172 11.3284 5.67157C10.5783 4.92143 9.56084 4.5 8.49997 4.5Z" fill="#D9863A"/>
</svg>
